<svg xmlns="http://www.w3.org/2000/svg" xmlns:xlink="http://www.w3.org/1999/xlink" width="500" zoomAndPan="magnify" viewBox="0 0 375 374.999991" height="500" preserveAspectRatio="xMidYMid meet" version="1.0"><defs><g/><clipPath id="8478904199"><path d="M 0.359375 64 L 196.679688 64 L 196.679688 300.441406 L 0.359375 300.441406 Z M 0.359375 64 " clip-rule="nonzero"/></clipPath><clipPath id="caf0eb2408"><rect x="0" width="197" y="0" height="237"/></clipPath><clipPath id="9ed1f3e294"><path d="M 21.847656 0.5 L 165.265625 0.5 L 165.265625 143.917969 L 21.847656 143.917969 Z M 21.847656 0.5 " clip-rule="nonzero"/></clipPath><clipPath id="c106ee2811"><path d="M 0.847656 0.5 L 144.121094 0.5 L 144.121094 143.917969 L 0.847656 143.917969 Z M 0.847656 0.5 " clip-rule="nonzero"/></clipPath><clipPath id="b7372196fa"><rect x="0" width="145" y="0" height="144"/></clipPath><clipPath id="26c3b2ecba"><rect x="0" width="197" y="0" height="301"/></clipPath></defs><g transform="matrix(1, 0, 0, 1, 87, 37)"><g clip-path="url(#26c3b2ecba)"><g clip-path="url(#8478904199)"><g transform="matrix(1, 0, 0, 1, 0, 64)"><g clip-path="url(#caf0eb2408)"><g fill="#e7e3dd" fill-opacity="1"><g transform="translate(1.436592, 191.116266)"><g><path d="M 44.765625 -85.796875 L 44.765625 -37.5 C 44.765625 -33.175781 44.828125 -30.097656 44.953125 -28.265625 C 45.347656 -23.160156 46.851562 -19.851562 49.46875 -18.34375 C 52.09375 -16.84375 57.132812 -16.359375 64.59375 -16.890625 L 64.59375 0.78125 C 58.96875 1.695312 53.007812 2.15625 46.71875 2.15625 C 36.78125 2.15625 29.679688 0.488281 25.421875 -2.84375 C 21.171875 -6.1875 18.71875 -11.648438 18.0625 -19.234375 C 17.800781 -22.378906 17.671875 -27.421875 17.671875 -34.359375 L 17.671875 -85.796875 L 2.359375 -85.796875 L 2.359375 -103.65625 L 17.671875 -103.65625 L 17.671875 -129.375 L 44.765625 -129.375 L 44.765625 -103.65625 L 66.359375 -103.65625 L 66.359375 -85.796875 Z M 44.765625 -85.796875 "/></g></g></g><g fill="#e7e3dd" fill-opacity="1"><g transform="translate(59.746209, 191.116266)"><g><path d="M 49.671875 -107.1875 C 61.710938 -107.1875 71.332031 -104.175781 78.53125 -98.15625 C 85.726562 -92.144531 89.914062 -84.164062 91.09375 -74.21875 L 64 -74.21875 C 62.164062 -84.289062 56.800781 -89.328125 47.90625 -89.328125 C 43.976562 -89.328125 40.929688 -88.3125 38.765625 -86.28125 C 36.609375 -84.257812 35.53125 -81.546875 35.53125 -78.140625 C 35.53125 -74.210938 37.296875 -71.070312 40.828125 -68.71875 C 44.367188 -66.363281 50.523438 -64.070312 59.296875 -61.84375 C 70.679688 -58.96875 79.1875 -54.972656 84.8125 -49.859375 C 90.4375 -44.753906 93.25 -37.625 93.25 -28.46875 C 93.25 -18.382812 89.222656 -10.660156 81.171875 -5.296875 C 73.128906 0.0664062 62.828125 2.75 50.265625 2.75 C 37.171875 2.75 26.566406 -0.128906 18.453125 -5.890625 C 10.335938 -11.648438 5.5625 -20.289062 4.125 -31.8125 L 31.21875 -31.8125 C 32.257812 -26.3125 34.515625 -22.15625 37.984375 -19.34375 C 41.453125 -16.53125 45.675781 -15.125 50.65625 -15.125 C 55.238281 -15.125 58.9375 -16.101562 61.75 -18.0625 C 64.5625 -20.019531 65.96875 -22.832031 65.96875 -26.5 C 65.96875 -30.5625 64.066406 -33.867188 60.265625 -36.421875 C 56.472656 -38.972656 50.0625 -41.359375 41.03125 -43.578125 C 30.425781 -46.203125 22.3125 -49.96875 16.6875 -54.875 C 11.0625 -59.78125 8.25 -66.488281 8.25 -75 C 8.25 -84.945312 12.007812 -92.796875 19.53125 -98.546875 C 27.0625 -104.304688 37.109375 -107.1875 49.671875 -107.1875 Z M 49.671875 -107.1875 "/></g></g></g><g fill="#e7e3dd" fill-opacity="1"><g transform="translate(144.756754, 191.116266)"><g><path d="M 38.671875 -144.296875 L 38.671875 -34.15625 C 38.671875 -29.582031 38.738281 -26.378906 38.875 -24.546875 C 39.132812 -21.796875 40.113281 -19.960938 41.8125 -19.046875 C 43.519531 -18.128906 46.597656 -17.800781 51.046875 -18.0625 L 51.046875 0.59375 C 46.335938 1.113281 40.773438 1.375 34.359375 1.375 C 19.960938 1.375 12.5 -4.773438 11.96875 -17.078125 C 11.707031 -20.222656 11.578125 -25.722656 11.578125 -33.578125 L 11.578125 -144.296875 Z M 38.671875 -144.296875 "/></g></g></g></g></g></g><g clip-path="url(#9ed1f3e294)"><g transform="matrix(1, 0, 0, 1, 21, -0.000000000000007105)"><g clip-path="url(#b7372196fa)"><path fill="#ff3131" d="M 77.074219 126.71875 C 73.382812 123.023438 73.382812 117.039062 77.074219 113.347656 C 80.765625 109.65625 86.753906 109.65625 90.441406 113.347656 C 94.136719 117.039062 94.136719 123.023438 90.441406 126.71875 C 86.753906 130.410156 80.765625 130.410156 77.074219 126.71875 " fill-opacity="1" fill-rule="nonzero"/><g clip-path="url(#c106ee2811)"><path fill="#ff3131" d="M 72.484375 0.496094 C 112.050781 0.496094 144.128906 32.570312 144.128906 72.136719 C 144.128906 73.878906 144.0625 75.601562 143.9375 77.3125 C 126.457031 60.523438 99.296875 59.71875 80.898438 74.917969 L 59.296875 53.320312 C 62.425781 48.023438 61.714844 41.082031 57.164062 36.53125 C 51.769531 31.136719 43.019531 31.136719 37.625 36.53125 C 32.230469 41.925781 32.230469 50.675781 37.625 56.070312 C 42.175781 60.621094 49.117188 61.332031 54.414062 58.203125 L 75.902344 79.691406 C 59.441406 97.839844 59.539062 125.644531 76.171875 143.6875 C 74.953125 143.75 73.722656 143.78125 72.484375 143.78125 C 32.917969 143.78125 0.839844 111.703125 0.839844 72.136719 C 0.839844 32.570312 32.917969 0.496094 72.484375 0.496094 " fill-opacity="1" fill-rule="nonzero"/></g><path fill="#ff3131" d="M 126.257812 77.535156 C 129.949219 81.226562 129.949219 87.210938 126.257812 90.902344 C 122.5625 94.59375 116.578125 94.59375 112.886719 90.902344 C 109.195312 87.210938 109.195312 81.226562 112.886719 77.535156 C 116.578125 73.84375 122.5625 73.84375 126.257812 77.535156 " fill-opacity="1" fill-rule="nonzero"/></g></g></g></g></g></svg>